<svg xmlns="http://www.w3.org/2000/svg" width="47" height="47"><path d="M7.371 19.227H2.137c-1.18 0-2.137.957-2.137 2.137v23.5C0 46.043.957 47 2.137 47h5.234c1.18 0 2.136-.957 2.136-2.136v-23.5c0-1.18-.956-2.137-2.136-2.137zm12.498 6.408h-5.234a2.137 2.137 0 0 0-2.137 2.137v17.09c0 1.181.956 2.137 2.137 2.137h5.234c1.18 0 2.136-.957 2.136-2.137v-17.09c0-1.18-.956-2.137-2.136-2.137zm12.496 0h-5.234c-1.18 0-2.136.957-2.136 2.137v17.09c0 1.181.956 2.137 2.136 2.137h5.234a2.137 2.137 0 0 0 2.137-2.137v-17.09c0-1.18-.956-2.137-2.137-2.137zm12.498-6.408h-5.234c-1.18 0-2.136.957-2.136 2.137v23.5c0 1.18.956 2.136 2.136 2.136h5.234c1.18 0 2.137-.958 2.137-2.136v-23.5c0-1.18-.957-2.137-2.137-2.137zm-20.74-6.357v3.846c1.164-.077 2.391-.623 2.391-1.904 0-1.322-1.345-1.709-2.391-1.942zm-3.345-4.603c0 .972.723 1.534 2.18 1.826V6.614c-1.324.039-2.18.817-2.18 1.653z"/><path d="M23.5 0c-6.479 0-11.75 5.272-11.75 11.75 0 6.476 5.271 11.748 11.75 11.748s11.75-5.272 11.75-11.748C35.25 5.272 29.979 0 23.5 0zm.623 18.699v1.203c0 .331-.254.661-.586.661-.328 0-.579-.33-.579-.661v-1.203c-3.283-.08-4.916-2.042-4.916-3.577 0-.775.469-1.223 1.203-1.223 2.176 0 .484 2.681 3.713 2.816v-4.06c-2.88-.523-4.624-1.786-4.624-3.942 0-2.641 2.196-4.003 4.624-4.079V3.598c0-.331.251-.661.579-.661.332 0 .586.33.586.661v1.036c1.514.04 4.623.99 4.623 2.895 0 .757-.566 1.203-1.227 1.203-1.264 0-1.246-2.077-3.396-2.117v3.691c2.564.545 4.835 1.302 4.835 4.294 0 2.602-1.942 3.922-4.835 4.099z"/></svg>