<svg xmlns="http://www.w3.org/2000/svg" width="32" height="32"><path d="M30.762 26.668V13.769L17.55 8.22V5.703h1.28V6.85h4.518V2.873h-2.293V1.727H17.55v-.01c0-.629-.521-1.137-1.146-1.137-.627 0-1.147.508-1.147 1.137V8.1l-14.02 5.669v12.899H.091v3.438h13.482v-8.494h5.661v8.494h12.674v-3.438h-1.146zM7.776 21.611h3.101v3.035H7.776v-3.035zm-4.92 0h3.167v3.035H2.856v-3.035zm13.142-4.55a2.228 2.228 0 1 1 .003-4.455 2.228 2.228 0 0 1-.003 4.455zm10.248 4.55h3.168v3.035h-3.168v-3.035zm-4.921 0h3.169v3.035h-3.169v-3.035z"/></svg>