<svg xmlns="http://www.w3.org/2000/svg" width="32" height="32"><path d="M20.016 20.766c-.037.07-.111.137-.111.201v6.391c0 1.056-.889 1.875-1.94 1.875H4.598c-1.055 0-1.931-.82-1.931-1.875V10.241c0-1.054.876-1.938 1.931-1.938h13.364c.384 0 .741.128 1.04.323l2.145-2.377a2.494 2.494 0 0 0-1.287-.34H2.597A2.386 2.386 0 0 0 .204 8.307v20.95a2.494 2.494 0 0 0 2.495 2.509h17.16a2.504 2.504 0 0 0 2.507-2.509V18.189l-2.07 2.32c-.089.1-.176.186-.28.257z"/><path d="M5.85 11.586c-.681 0-1.232.516-1.232 1.198 0 .679.552 1.196 1.232 1.196h8.35l2.186-2.394H5.85zm6.973 4.174c.012-.042.026-.069.042-.138H5.85a1.23 1.23 0 1 0 0 2.46h6.308l.665-2.322zm-2.718 3.967H5.85a1.23 1.23 0 1 0 0 2.46h4.256c.545 0 1.005-.36 1.168-.847a2.12 2.12 0 0 1 .064-.397 1.221 1.221 0 0 0-1.233-1.216zM23.284 6.013l-7.905 8.811-.535.597 4.278 3.837.535-.596 7.903-8.81.638-.709-4.279-3.838-.635.708zm-.436 3.986l-5.097 5.681a.363.363 0 0 1-.51.028l-.253-.227a.362.362 0 0 1-.026-.509l5.097-5.682a.358.358 0 0 1 .25-.119.367.367 0 0 1 .26.091l.251.228a.36.36 0 0 1 .028.509zm1.48-2.699l.252.226a.36.36 0 0 1 .029.506l-.002.002-.441.494a.365.365 0 0 1-.249.12.362.362 0 0 1-.26-.092l-.253-.226a.358.358 0 0 1-.027-.509l.443-.494a.36.36 0 0 1 .508-.027zm.393-2.889l-.389.433 4.277 3.838.39-.434.663-.738-4.278-3.838zm6.661-.683l-2.426-2.175a1.24 1.24 0 0 0-1.755.095L25.77 3.242l4.277 3.837 1.43-1.594a1.243 1.243 0 0 0-.095-1.757zM29.961 5.48l-2.592-2.325.749-.834 2.591 2.325-.748.834zm-16.27 16.364l4.917-2.015-4.274-3.836-1.473 5.107a.62.62 0 0 0 .83.744zm1.032-4.487l2.485 2.229-1.932.792-1.131-1.014.578-2.007z"/></svg>