<svg xmlns="http://www.w3.org/2000/svg" viewBox="0 0 490 490"><path d="M172.05 0h-154c-9.9 0-18 8.1-18 18v154c0 9.9 8.1 18 18 18s18-8.1 18-18V36h136c9.9 0 18-8.1 18-18s-8.1-18-18-18zm317.8 18c0-9.9-8.1-18-18-18h-153.9c-9.9 0-18 8.1-18 18s8.1 18 18 18h136v136c0 9.9 8.1 18 18 18s18-8.1 18-18V18h-.1zm0 300c0-9.9-8.1-18-18-18s-18 8.1-18 18v136h-135.9c-9.9 0-18 8.1-18 18s8.1 18 18 18h154c9.9 0 18-8.1 18-18V318h-.1zm-317.8 136h-136V318c0-9.9-8.1-18-18-18s-18 8.1-18 18v154c0 9.9 8.1 18 18 18h154c9.9 0 18-8.1 18-18s-8.1-18-18-18zm166.6-196.5c-6-7.9-17.3-9.5-25.2-3.5-7.9 6-9.5 17.3-3.5 25.2 10.7 14.2 16.4 31.1 16.4 49v50.3h-162.7v-50.3c0-44.8 36.5-81.3 81.3-81.3 47.2 0 85.7-38.4 85.7-85.7 0-47.3-38.5-85.6-85.7-85.6s-85.7 38.4-85.7 85.7c0 5.8.6 11.7 1.8 17.4 2 9.7 11.5 16 21.3 14 9.7-2 16-11.5 14-21.3-.7-3.3-1-6.7-1-10.1 0-27.4 22.3-49.7 49.7-49.7 27.4 0 49.7 22.3 49.7 49.7 0 27.4-22.3 49.7-49.7 49.7-64.7 0-117.3 52.6-117.3 117.3V380c0 19 15.5 34.5 34.5 34.5h165.6c19 0 34.5-15.5 34.5-34.5v-51.8c0-25.7-8.2-50.2-23.7-70.7z"/></svg>