<svg xmlns="http://www.w3.org/2000/svg" width="64" height="64"><path d="M62.181 54.896c.082-.106.148-.229.21-.398.031-.095.051-.195.061-.309l.008-23.931-9.225.002 1.863-2.018.084-.104c.081-.106.147-.229.209-.397.031-.095.051-.195.061-.309L55.459 3.5l-23.876.005a1.43 1.43 0 0 0-.425.083 1.304 1.304 0 0 0-.356.204l-6.125 5.651c-.037.034-.071.07-.104.108h-.323V30.26l-14.625.003a1.487 1.487 0 0 0-.428.083 1.34 1.34 0 0 0-.347.198l-6.136 5.66a1.407 1.407 0 0 0-.1.104h-.322v25.158h24.877l4.081-4.421v4.421h24.877l5.971-6.468.083-.102zM28.465 9.551l3.68-3.4h18.79l-3.4 3.4h-19.07zM6.507 36.309l3.68-3.4H24.25v1.801h2.926l-1.6 1.6H6.507zm20.368-4.401V19.867h.025v-7.666h19.857v7.666h.024v12.691H26.875v-.65zm26.883 7.051v19.857H33.9V38.959h19.858zm-18.293-2.65l1.731-1.6h11.931l1.662-1.801h7.145l-3.4 3.4H35.465zm14.059-5.551l-.44.492v-19.1l4.5-5.15v19.22l-3.615 4.041-.445.497zM4.942 58.816V38.959H24.8v19.857H4.942zM27.084 39.15l3.881-4.441.437-.5.182-.209v19.22l-.334.373-4.166 4.657v-19.1zm29 0l4.5-5.15v19.22l-4.5 5.03v-19.1z"/><path d="M16.702 40.495h-3.823a.5.5 0 0 0-.432.248l-1.315 2.25a.499.499 0 0 0 .432.752h2.244v13.117a.5.5 0 0 0 .5.5h2.395a.5.5 0 0 0 .5-.5V40.995a.5.5 0 0 0-.501-.5zm14.314-10.237a.498.498 0 0 0 .438.271h10.658c.191 0 .351-.11.435-.267a.484.484 0 0 0 .065-.233v-2.251a.5.5 0 0 0-.5-.5H37.28l1.771-2.095a50.674 50.674 0 0 0 1.717-2.123c.463-.61.82-1.149 1.062-1.596a6.01 6.01 0 0 0 .607-1.596c.089-.392.144-.787.144-1.184 0-1.495-.552-2.766-1.638-3.777-1.07-1.003-2.409-1.512-3.979-1.512-3.23 0-5.154 1.887-5.563 5.458a.503.503 0 0 0 .497.557h2.384a.499.499 0 0 0 .496-.439c.266-2.158 1.416-2.408 2.258-2.408.64 0 1.158.2 1.586.61.423.406.628.897.628 1.5 0 .345-.124.746-.359 1.194-.05.095-.099.19-.159.29-.182.311-.453.706-.806 1.174a57.473 57.473 0 0 1-1.348 1.709l-5.509 6.67a.499.499 0 0 0-.066.531c.001.008.009.011.013.017zm12.782 27.361c1.624 0 2.982-.502 4.037-1.493 1.062-.999 1.601-2.297 1.601-3.858 0-1.651-.554-2.928-1.649-3.804.925-.862 1.393-1.988 1.393-3.358 0-1.427-.496-2.611-1.474-3.52-.969-.908-2.228-1.369-3.743-1.369-1.498 0-2.693.395-3.553 1.173-.85.77-1.414 1.972-1.678 3.573a.5.5 0 0 0 .493.581h2.384a.5.5 0 0 0 .488-.393c.146-.667.366-1.154.625-1.397.268-.237.674-.357 1.209-.357.583 0 1.038.166 1.395.512.351.329.521.751.521 1.291 0 .701-.23 1.188-.706 1.492-.149.097-.578.259-1.773.259a.5.5 0 0 0-.5.5v2.045a.5.5 0 0 0 .5.5c1.043 0 1.562.175 1.81.32.604.359.896.965.896 1.852 0 .68-.203 1.223-.616 1.653-.413.418-.926.622-1.566.622-.649 0-1.153-.161-1.54-.491-.387-.332-.626-.81-.731-1.462a.5.5 0 0 0-.493-.42h-2.312a.5.5 0 0 0-.498.549c.11 1.117.383 2.015.81 2.672 1.017 1.543 2.589 2.328 4.67 2.328z"/></svg>