<svg xmlns="http://www.w3.org/2000/svg" width="23.303" height="22.076"><path d="M0 12.821h6.892v9.255H0zm16.411-2.379h6.892v11.633h-6.892zm-8.206-3.45h6.894v15.084H8.205zM19.91 3.431l.976 1.98 2.186.318-1.58 1.541.372 2.177-1.954-1.028-1.954 1.028.372-2.177-1.58-1.541 2.184-.318.978-1.98zM11.689 0l.977 1.981 2.186.318-1.58 1.542.373 2.175-1.955-1.027-1.955 1.027.372-2.175-1.58-1.542 2.185-.318L11.689 0zM3.326 5.74l.976 1.981 2.186.319-1.579 1.54.372 2.176-1.955-1.027-1.955 1.027.373-2.176-1.58-1.54 2.185-.319.977-1.981z"/></svg>